<svg width="25" height="24" viewBox="0 0 25 24" fill="none" xmlns="http://www.w3.org/2000/svg">
<path fill-rule="evenodd" clip-rule="evenodd" d="M24.4111 12.2728C24.4111 11.4219 24.3347 10.6037 24.1929 9.81824H12.8911V14.4601H19.3493C19.0711 15.9601 18.2257 17.231 16.9547 18.0819V21.0928H20.8329C23.102 19.0037 24.4111 15.9273 24.4111 12.2728Z" fill="#4285F4"/>
<path fill-rule="evenodd" clip-rule="evenodd" d="M12.8877 23.9999C16.1277 23.9999 18.8441 22.9254 20.8295 21.0926L16.9513 18.0817C15.8768 18.8017 14.5022 19.2272 12.8877 19.2272C9.76224 19.2272 7.11679 17.1163 6.17315 14.2799H2.16406V17.389C4.13861 21.3108 8.19679 23.9999 12.8877 23.9999Z" fill="#34A853"/>
<path fill-rule="evenodd" clip-rule="evenodd" d="M6.17461 14.2799C5.93461 13.5599 5.79825 12.7908 5.79825 11.9999C5.79825 11.209 5.93461 10.4399 6.17461 9.71993V6.61084H2.16552C1.3528 8.23084 0.88916 10.0636 0.88916 11.9999C0.88916 13.9363 1.3528 15.769 2.16552 17.389L6.17461 14.2799Z" fill="#FBBC05"/>
<path fill-rule="evenodd" clip-rule="evenodd" d="M12.8877 4.77273C14.6495 4.77273 16.2313 5.37818 17.475 6.56727L20.9168 3.12545C18.8386 1.18909 16.1222 0 12.8877 0C8.19679 0 4.13861 2.68909 2.16406 6.61091L6.17315 9.72C7.11679 6.88364 9.76224 4.77273 12.8877 4.77273Z" fill="#EA4335"/>
</svg>
