<svg width="25" height="24" viewBox="0 0 25 24" fill="none" xmlns="http://www.w3.org/2000/svg">
<path fill-rule="evenodd" clip-rule="evenodd" d="M12.6768 2.03032C12.5791 1.93268 12.4209 1.93268 12.3232 2.03032L4.25 10.1035V18.7929C4.25 20.5878 5.70507 22.0429 7.5 22.0429H17.5C19.2949 22.0429 20.75 20.5878 20.75 18.7929V10.1035L12.6768 2.03032ZM2.03033 12.3232L2.75 11.6035V18.7929C2.75 21.4162 4.87665 23.5429 7.5 23.5429H17.5C20.1234 23.5429 22.25 21.4162 22.25 18.7929V11.6035L22.9697 12.3232C23.2626 12.6161 23.7374 12.6161 24.0303 12.3232C24.3232 12.0303 24.3232 11.5554 24.0303 11.2625L13.7374 0.969655C13.054 0.286237 11.946 0.286239 11.2626 0.969656L0.96967 11.2625C0.676777 11.5554 0.676777 12.0303 0.96967 12.3232C1.26256 12.6161 1.73744 12.6161 2.03033 12.3232ZM9.5 19.0429H15.5V17.5429H9.5V19.0429Z" fill="#525252"/>
</svg>
