<svg width="121" height="56" viewBox="0 0 121 56" fill="none" xmlns="http://www.w3.org/2000/svg">
<path fill-rule="evenodd" clip-rule="evenodd" d="M91.2991 1.37946C90.835 1.91993 90.0863 2.97976 89.6328 3.73905C89.1794 4.49834 88.7391 5.11789 88.6574 5.11789C88.5756 5.11789 87.5843 4.30851 86.456 3.3225C85.3276 2.33384 84.2256 1.52446 84.0067 1.52446C83.461 1.52446 82.1533 4.18988 81.9424 5.73218C81.8475 6.42556 81.663 6.99238 81.5338 6.99238C81.4046 6.99238 80.6427 6.63383 79.8412 6.19355C76.2504 4.22679 75.3988 4.59061 75.5096 8.04959L75.5808 10.2721L73.2027 10.1666C70.1603 10.0295 69.8202 10.3301 70.5584 12.5025C70.8431 13.3382 71.2755 14.3348 71.5233 14.7144C71.7711 15.0941 71.9715 15.5238 71.9715 15.6662C71.9715 15.8086 70.793 16.0933 69.3535 16.2989C67.9141 16.5046 66.5379 16.8684 66.2927 17.1083C65.6889 17.6989 66.0422 18.6559 67.4079 20.1375C68.4361 21.2527 68.5811 21.9883 67.7717 21.9883C67.0098 21.9883 63.6826 24.2477 63.6826 24.7645C63.6826 25.4367 65.0641 26.7365 66.5537 27.4615C67.168 27.762 67.7269 28.0573 67.7981 28.118C67.8692 28.1786 67.2681 28.7982 66.464 29.4942C64.7873 30.9416 63.5376 32.7528 63.8593 33.2642C63.9805 33.4567 64.5632 33.8126 65.1564 34.0552C66.3955 34.564 66.3744 34.477 65.7522 36.4912C64.9745 39.0037 65.0404 39.0854 68.1461 39.4572C69.4669 39.6154 69.8703 39.7788 69.7754 40.1242C69.7068 40.3773 69.5829 41.7403 69.4959 43.1561C69.314 46.1774 69.488 46.354 72.1007 45.8268C73.1157 45.6211 73.7985 45.6106 73.9172 45.7951C74.0226 45.9586 74.1386 46.8207 74.1782 47.7118C74.2968 50.4747 74.6396 51.8167 75.2565 51.9327C75.5649 51.9907 76.7645 51.6058 77.9166 51.0759C79.0714 50.5459 80.06 50.1136 80.1128 50.1136C80.1655 50.1136 80.379 50.6408 80.582 51.2841C81.2728 53.4565 82.5752 55.737 83.1288 55.737C83.4215 55.737 84.6316 54.7537 85.818 53.5488C87.0017 52.3466 88.0194 51.3606 88.08 51.3606C88.1406 51.3606 88.7101 52.2042 89.3481 53.2351C89.9861 54.2659 90.7269 55.1096 90.9932 55.1096C91.655 55.1096 94.1727 53.301 94.7844 52.3862L95.2827 51.64L96.419 52.6182C97.0438 53.156 97.9059 53.7518 98.333 53.9443C99.0185 54.2501 99.2004 54.1815 99.87 53.3722C101.025 51.9775 102.158 49.7761 102.396 48.4684L102.609 47.2952L103.949 47.4982C104.687 47.609 105.62 47.8225 106.026 47.9675C107.168 48.3814 108.42 48.2839 109.24 47.7223C109.891 47.2768 109.962 47.029 109.812 45.7688C109.717 44.9752 109.543 44.0208 109.427 43.6491C109.232 43.0322 109.353 42.9504 110.758 42.7738C113.187 42.4653 113.661 42.3309 114.196 41.8062C114.784 41.2315 114.605 40.1479 113.672 38.6267L113.049 37.6117L114.589 36.9658C116.079 36.3409 117.566 35.2468 117.566 34.7723C117.566 34.6457 116.983 33.8179 116.269 32.9347C115.557 32.0515 115.019 31.2026 115.074 31.0497C115.13 30.8967 115.657 30.4486 116.242 30.0505C116.83 29.6524 117.539 28.9484 117.819 28.4871C118.251 27.77 118.264 27.53 117.906 26.8709C117.51 26.1486 117.568 26.0194 118.799 24.8725C119.522 24.1976 120.115 23.3566 120.115 23.0033C120.115 22.1597 118.451 21.2079 116.16 20.7439C115.18 20.5436 114.376 20.3326 114.376 20.272C114.376 20.2114 115.014 19.431 115.794 18.5346C117.165 16.9607 117.821 15.4605 117.418 14.8199C117.31 14.6512 116.69 14.4244 116.039 14.3163C114.503 14.0632 113.736 13.3962 113.738 12.3153C113.738 10.5568 113.516 10.4355 110.31 10.4303L108.317 10.425V8.72714C108.317 6.19882 107.924 5.42372 106.651 5.43954C106.076 5.44745 105.032 5.65572 104.331 5.90355C103.63 6.15137 102.97 6.35701 102.868 6.35965C102.765 6.35965 102.506 5.61091 102.296 4.68816C101.568 1.50601 100.84 1.32146 97.84 3.56505C96.9014 4.26633 96.0446 4.75407 95.9365 4.64861C95.8284 4.54316 95.2273 3.5835 94.5998 2.52103C93.2368 0.206257 92.5171 -0.0415648 91.2991 1.37683V1.37946ZM91.0961 4.1846C90.5239 5.05989 89.7225 6.5811 89.3165 7.56448C88.5387 9.45216 88.022 13.1537 88.4517 13.7548C88.6073 13.971 90.11 14.1555 92.293 14.2293L95.8785 14.348V12.4419C95.8785 11.3926 95.7203 9.76853 95.5279 8.82733C95.1614 7.0372 93.105 2.89013 92.4907 2.70294C92.2956 2.6423 91.6655 3.30932 91.0934 4.1846H91.0961ZM83.7774 4.72771C82.91 7.7464 82.9522 7.93359 84.8952 9.88189C85.8812 10.8705 86.746 11.6799 86.8198 11.6799C86.8936 11.6799 86.9516 11.3715 86.9516 10.9945C86.9516 10.6175 87.123 9.4917 87.3339 8.4925L87.7162 6.67338L86.1501 5.11526C85.288 4.25842 84.476 3.55714 84.3468 3.55714C84.2176 3.55714 83.9593 4.08442 83.7747 4.73034L83.7774 4.72771ZM98.3462 5.04407L96.825 6.2041L97.0333 8.55314C97.3022 11.6061 97.5236 12.0174 98.3093 10.9048C98.6415 10.4355 99.4403 9.4627 100.089 8.74296L101.265 7.4353L100.885 5.75591C100.674 4.83316 100.36 4.03433 100.186 3.97896C100.012 3.92624 99.1846 4.40343 98.3488 5.04144L98.3462 5.04407ZM77.334 7.15321C77.2443 7.24021 77.2364 8.32905 77.3129 9.57343C77.4131 11.1869 77.7242 12.4181 78.3938 13.8655C79.3403 15.914 80.7007 17.6171 81.3888 17.6171C81.5944 17.6171 82.3933 17.1268 83.1631 16.5257C83.9329 15.9246 85.0297 15.2813 85.5991 15.0941C86.1686 14.9069 86.6352 14.5642 86.6352 14.3295C86.6352 13.5491 83.0708 10.1165 80.6269 8.54523C78.3253 7.06357 77.6952 6.79729 77.334 7.15321ZM103.896 7.7754C101.397 9.18852 100.049 10.4487 98.913 12.4392C97.608 14.725 97.5342 15.3472 98.5123 15.7163C98.9077 15.8666 99.8753 16.4967 100.664 17.1215L102.098 18.2551L103.176 17.0767C103.769 16.4281 104.774 14.8436 105.407 13.5544C106.369 11.6008 106.561 10.8732 106.561 9.18061C106.561 7.38521 106.487 7.14003 105.923 7.06884C105.573 7.02402 104.66 7.34303 103.893 7.7754H103.896ZM71.9689 11.8197C71.9689 11.9357 72.3617 12.8162 72.8415 13.7759C73.4584 15.0097 73.9963 15.6372 74.6738 15.914C75.6783 16.3253 78.0274 16.8288 78.0247 16.6338C78.0247 16.5731 77.6662 15.8296 77.2285 14.9834C76.7909 14.1371 76.4323 13.275 76.4323 13.0693C76.4323 12.8637 76.253 12.5473 76.0342 12.3707C75.5676 11.9963 71.9689 11.5059 71.9689 11.817V11.8197ZM108.641 12.2705C107.882 12.4788 105.799 15.2549 106.147 15.595C106.234 15.682 106.867 15.5185 107.55 15.2338C108.235 14.9491 109.43 14.5536 110.205 14.3559C111.721 13.9683 112.364 13.3198 112.045 12.5051C111.834 11.9647 110.184 11.8513 108.641 12.2731V12.2705ZM107.191 17.016C105.794 17.7173 104.399 18.5109 104.091 18.7824C103.498 19.3071 103.347 20.2799 103.814 20.562C103.97 20.6569 104.402 21.374 104.779 22.1544C105.153 22.9374 105.675 23.6572 105.934 23.7547C106.593 24.0025 110.679 21.5375 112.73 19.6551C114.505 18.0258 115.491 16.5626 115.164 16.0432C115.058 15.8771 113.793 15.74 112.353 15.74C109.917 15.74 109.556 15.8296 107.191 17.0134V17.016ZM70.3738 17.4932C67.603 17.9889 67.5555 18.1708 69.6567 20.185C71.2913 21.751 75.6045 24.4929 76.4323 24.4929C76.7197 24.4929 77.1099 24.0394 77.3261 23.4489C77.537 22.8741 78.1539 21.7484 78.697 20.9443C79.2401 20.1402 79.6145 19.3044 79.5301 19.0883C79.161 18.1497 72.8521 17.0503 70.3738 17.4932ZM111.265 22.4629C110.519 22.9111 109.909 23.3882 109.909 23.528C109.909 23.6677 110.698 23.8575 111.663 23.9551C112.628 24.0526 113.869 24.3532 114.423 24.6247C115.739 25.268 115.82 25.2575 117.11 24.2952C117.977 23.6466 118.132 23.383 117.848 23.0455C117.647 22.8109 117.244 22.6184 116.951 22.6184C116.659 22.6184 116.279 22.4866 116.113 22.3258C115.947 22.1649 115.093 21.9461 114.215 21.8433C112.857 21.6825 112.422 21.7748 111.265 22.4655V22.4629ZM67.9826 23.2933C65.1696 24.7223 65.1458 25.1388 67.806 26.3595L69.4036 27.0924L71.8001 26.3489C73.1183 25.9403 74.1966 25.5106 74.1966 25.3998C74.1966 25.2891 73.7616 25.0175 73.2264 24.8014C72.6939 24.5852 71.6894 24.0052 70.9987 23.5148C69.517 22.4629 69.6066 22.4681 67.98 23.296L67.9826 23.2933ZM106.738 25.413C106.385 25.6318 106.271 26.4518 106.261 28.8641L106.245 32.0304L107.36 31.8379C111.172 31.1841 116.129 28.7876 116.129 27.5986C116.129 27.3508 115.267 26.6917 114.215 26.138C112.52 25.2469 112.011 25.1309 109.751 25.1283C108.349 25.1283 106.991 25.2548 106.738 25.4104V25.413ZM73.3266 27.2849C70.0469 28.4528 65.5149 31.7351 66.0369 32.563C66.5484 33.3723 73.5771 33.8838 75.7943 33.2695C76.4903 33.0771 76.5826 32.8925 76.5193 31.8169C76.4798 31.1393 76.4007 29.7394 76.348 28.7085C76.2319 26.4913 75.9393 26.3542 73.3266 27.2849ZM111.027 32.3046C110.677 32.4522 109.851 32.6605 109.195 32.766C108.539 32.8714 108.006 33.1272 108.014 33.3328C108.022 33.5411 108.881 34.2529 109.923 34.9173C111.52 35.9349 111.99 36.0931 112.915 35.9217C113.519 35.811 114.328 35.4683 114.716 35.1625C115.335 34.6694 115.37 34.5139 115.016 33.8443C114.064 32.0462 112.794 31.5558 111.03 32.3046H111.027ZM104.784 35.347C104.568 35.9903 103.601 37.327 102.636 38.3182C101.671 39.3095 100.94 40.1716 101.012 40.2323C101.526 40.6699 106.385 41.3659 108.913 41.3607C112.902 41.3554 113.171 41.1893 112.179 39.3465C111.404 37.9096 109.865 36.4965 107.444 35.0069C105.654 33.9049 105.251 33.9576 104.782 35.3444L104.784 35.347ZM67.8402 35.7847C66.754 37.53 67.0572 37.9254 69.4695 37.9254C70.5558 37.9254 70.9565 37.7171 72.1798 36.5202L73.614 35.115L71.7553 35.1097C70.7324 35.1097 69.5803 35.0227 69.1954 34.9199C68.6417 34.7749 68.357 34.9568 67.8402 35.7847ZM75.9182 35.3997C74.4392 36.2829 72.4592 38.3499 71.7975 39.7024C71.0804 41.1656 70.7508 44.4901 71.3256 44.4901C73.2607 44.4901 78.5072 41.8932 80.0732 40.1611C80.6769 39.4915 80.6743 39.4756 79.683 38.2682C79.1346 37.5985 78.4386 36.5439 78.1381 35.927C77.5106 34.6378 77.2839 34.5851 75.9182 35.3997ZM81.5549 41.3238C80.4028 43.4355 80.5161 46.5913 81.8871 50.5591C82.6569 52.7895 83.0524 53.5488 83.4399 53.5488C83.8485 53.5488 86.1607 51.0811 87.4789 49.2356C88.7417 47.4666 90.1575 44.2713 89.9334 43.6965C89.8517 43.4856 88.9395 43.1508 87.9113 42.9531C86.8831 42.7553 85.2037 42.178 84.1834 41.6691C81.9872 40.5777 81.9635 40.5724 81.5522 41.3238H81.5549ZM98.2196 41.8721C97.3602 42.4601 94.4733 43.2325 93.1103 43.2352C92.5514 43.2352 92.003 43.3828 91.8922 43.5594C91.2648 44.556 97.666 52.5971 98.7997 52.2359C99.4087 52.0408 100.324 50.0345 100.69 48.0888C101.017 46.3514 100.748 44.4743 99.8753 42.4284C99.3691 41.242 99.2136 41.1893 98.217 41.8695L98.2196 41.8721ZM101.621 42.1305C101.621 42.2439 101.784 42.9794 101.987 43.7624C102.39 45.3311 103.158 45.8268 105.965 46.3409C107.832 46.6836 108.365 46.2301 107.993 44.6166C107.848 43.9892 107.611 43.3643 107.466 43.2246C107.321 43.0875 106.197 42.8371 104.969 42.6657C103.74 42.497 102.485 42.2597 102.18 42.141C101.874 42.0198 101.621 42.0171 101.621 42.1305ZM77.4342 44.0762C76.4956 44.6272 75.6572 45.1466 75.5728 45.2283C75.3435 45.4524 75.818 49.3306 76.1344 49.8341C76.3611 50.1927 76.6643 50.1347 77.8481 49.4993C78.639 49.0748 79.3271 48.5844 79.3746 48.4052C79.422 48.2259 79.3904 46.9551 79.3034 45.5763L79.1426 43.0717L77.4342 44.0735V44.0762ZM90.0151 48.0914L89.1082 50.132L90.0257 51.582C90.5292 52.3782 91.1066 53.0848 91.3096 53.1507C91.5126 53.2166 92.2851 52.7052 93.0259 52.0144L94.3731 50.7569L93.3765 49.6443C92.8282 49.0326 92.09 47.9728 91.7341 47.29C91.3782 46.6071 91.0512 46.0482 91.0064 46.0482C90.9616 46.0482 90.516 46.9657 90.0178 48.0888L90.0151 48.0914Z" fill="#FFD5CA"/>
<path fill-rule="evenodd" clip-rule="evenodd" d="M22.0696 5.47912C20.2716 5.90358 18.4024 7.11897 18.4024 7.86243C18.4024 8.14453 18.8664 8.07862 20.0765 7.62779C23.3641 6.39922 27.3688 7.36415 29.7601 9.95838C30.7382 11.0209 32.5256 14.3955 36.1692 22.0622C36.7808 23.3514 37.925 25.7347 38.7107 27.3613L40.137 30.3168L40.7223 29.5548C41.297 28.8087 41.761 27.8596 44.0099 22.8399C48.6895 12.3971 50.9753 8.93545 54.0414 7.64888C55.7525 6.92914 58.99 6.87114 60.5982 7.53025C62.1906 8.18144 62.615 8.12344 61.9006 7.34833C60.0973 5.39739 54.7269 4.69874 52.0008 6.06176C49.9418 7.0926 48.7765 8.21308 47.6007 10.2906C46.6806 11.9199 41.9561 21.8486 40.7671 24.6538C40.4033 25.5132 39.76 25.558 39.76 24.7249C39.76 24.2267 37.3266 18.8747 34.4766 13.1089C32.7682 9.64992 32.1829 8.77463 30.7619 7.55397C28.3417 5.47384 25.2201 4.72774 22.0617 5.47648L22.0696 5.47912ZM19.7575 9.21492C18.1361 9.76329 16.81 10.6412 16.81 11.1685C16.81 11.3109 17.2054 11.2713 17.6879 11.0841C18.1704 10.8969 19.5018 10.7388 20.6433 10.7335C24.5136 10.7124 26.9101 12.4472 29.0271 16.7972C29.6414 18.0601 31.1758 21.2027 32.436 23.7811C34.7218 28.4528 35.7605 30.6305 38.2598 35.9666C39.789 39.2331 40.0447 39.6233 40.4823 39.357C40.659 39.2489 41.3761 37.9492 42.0721 36.4702C42.7681 34.9911 43.9861 32.4444 44.7771 30.8098C45.568 29.1778 46.7886 26.6469 47.4926 25.1863C53.0659 13.5808 53.9201 12.2336 56.3219 11.245C57.6401 10.7019 59.9918 10.5727 62.1642 10.9207C63.4086 11.121 63.6459 11.0841 63.5009 10.7177C63.3031 10.2115 62.2512 9.68947 60.1737 9.06464C57.0786 8.13398 54.951 8.70608 52.5228 11.1237C50.7934 12.8426 49.5674 14.9728 46.1295 22.2177C43.1873 28.4186 40.4191 33.9366 40.2477 33.9366C40.1449 33.9366 39.6519 33.0586 39.1536 31.983C38.6553 30.91 37.4953 28.4845 36.5778 26.5941C35.6577 24.7038 34.271 21.8222 33.4906 20.1877C29.8444 12.5473 28.5868 10.7836 25.8371 9.43637C23.8729 8.47408 22.1329 8.41081 19.7575 9.21492ZM16.8891 13.0113C16.143 13.3356 15.534 13.7364 15.534 13.8998C15.534 14.0633 16.6518 14.1925 18.0254 14.1872C22.821 14.1661 23.7596 15.1495 28.5236 25.1889C30.1133 28.5398 32.3042 33.1087 33.3904 35.3444C34.4766 37.5774 36.069 40.8835 36.9311 42.6868C39.0771 47.1819 39.2142 47.4245 39.818 47.7936C40.7012 48.334 41.2917 47.5378 43.791 42.4179C45.0855 39.7709 46.1427 37.5643 46.1427 37.5142C46.1427 37.4641 47.0549 35.5501 48.1701 33.259C49.2853 30.968 50.6668 28.1101 51.2389 26.9053C55.2647 18.4345 56.0978 16.9001 57.2789 15.798C58.7158 14.4587 61.0121 13.7733 63.2346 14.0185C64.0123 14.1028 64.7084 14.0765 64.7848 13.9578C65.0854 13.4806 62.8576 12.6027 60.9725 12.4524C59.3011 12.3206 58.6894 12.4234 57.2341 13.0746C55.7656 13.7337 55.2726 14.1872 54.0678 16.0037C53.2821 17.1874 51.7293 20.0506 50.6141 22.3706C49.4989 24.6907 47.6982 28.4159 46.612 30.6516C45.5258 32.8846 44.3421 35.347 43.9835 36.1195C41.2416 42.0277 40.3584 43.6966 40.1132 43.4382C39.8733 43.1877 37.8907 39.0776 35.0724 32.9927C34.6348 32.0489 33.5749 29.8159 32.7181 28.0336C31.8613 26.2514 31.16 24.7434 31.16 24.6827C31.16 24.0579 26.425 15.4078 25.6604 14.6354C23.4458 12.3971 19.8313 11.7248 16.8917 13.0061L16.8891 13.0113ZM15.3336 16.262C13.5804 17.0108 13.7333 17.3746 15.7976 17.3746C17.7354 17.3746 18.434 17.6093 20.2426 18.8826C21.2181 19.5681 22.1909 21.2897 24.7799 26.9053C25.1753 27.7647 26.4144 30.3458 27.5296 32.6421C28.6475 34.9384 29.5597 36.8577 29.5597 36.9052C29.5597 37.0502 34.3184 46.7996 35.2016 48.4658C36.3168 50.5644 36.4908 50.7542 37.9646 51.4924C39.5622 52.2913 41.5949 52.0883 43.3429 50.9546C44.6953 50.0767 45.2516 49.0195 53.522 31.6192C55.9792 26.4492 58.199 21.7801 58.4548 21.2475C59.0401 20.0242 60.6325 18.416 61.8848 17.7806C62.4199 17.5091 63.6011 17.3008 64.5528 17.3087C66.509 17.3272 66.6804 16.821 64.9245 16.2199C63.4481 15.7163 61.3232 15.7216 60.0762 16.233C58.7632 16.7709 56.778 18.9248 56.0425 20.6095C55.7261 21.3292 54.8192 23.2512 54.023 24.8805C53.2268 26.5098 50.7538 31.6403 48.526 36.2803C46.2983 40.9204 44.0415 45.6001 43.5142 46.681C42.2356 49.2937 40.8673 50.0398 38.9348 49.1777C38.2783 48.885 37.6403 47.8937 36.2087 44.9383C35.1805 42.816 34.3395 41.0391 34.3395 40.9863C34.3395 40.9336 33.5644 39.2911 32.6153 37.3349C31.6662 35.3813 29.2275 30.3458 27.1975 26.1486C25.1648 21.9514 23.1796 18.1761 22.7841 17.7595C21.0546 15.943 17.6721 15.2655 15.3283 16.2647L15.3336 16.262ZM13.7807 19.4284C12.0433 20.3142 11.321 21.2422 9.59148 24.8146C8.65028 26.7576 7.88045 28.3922 7.88045 28.4476C7.88045 28.5029 6.93398 30.4987 5.77923 32.882C-0.237065 45.2916 0.139942 44.4137 0.116214 46.8286C0.100396 48.5502 0.269126 49.2383 1.13123 50.952C2.79481 54.2633 5.42068 55.8109 9.2092 55.8109C12.5416 55.8109 13.8177 55.3311 15.8371 53.3221C17.4005 51.7693 17.9384 50.8202 21.1258 43.9918C23.0767 39.8105 24.8036 36.4042 24.9644 36.4201C25.1252 36.4359 25.3441 36.7628 25.4521 37.1477C25.5602 37.5326 27.0103 40.6568 28.6765 44.0947C30.3427 47.5325 31.9588 50.8782 32.2699 51.5294C33.4563 54.0129 36.7386 55.8135 40.0816 55.8135C44.4976 55.8135 47.5506 53.7835 49.3143 49.6707C50.1184 47.7936 53.8121 40.0214 54.5608 38.6267C54.7928 38.197 55.0749 37.4588 55.1883 36.9869C55.3043 36.515 55.502 36.1301 55.6312 36.1327C55.7604 36.1327 57.5136 39.676 59.5304 44.0024C63.5061 52.5312 64.2206 53.562 67.1602 55.0226C68.9714 55.9216 72.0218 56.0983 74.3181 55.4365C76.2479 54.8802 79.0083 52.0777 79.8835 49.7867C81.1016 46.5966 80.7641 45.0253 77.3895 38.1601C76.1214 35.5817 74.6555 32.5604 74.1309 31.4425C73.6062 30.3247 72.7389 28.4976 72.2037 27.3798C71.6685 26.262 70.8433 24.5035 70.3687 23.4674C69.4829 21.5401 67.785 19.779 66.2691 19.2122C64.8903 18.6981 62.9393 19.1647 61.5262 20.3511C60.2818 21.3951 59.7624 22.2836 57.0496 28.0046C56.3562 29.4652 55.2779 31.7141 54.6504 33.0033C54.023 34.2925 51.9112 38.7217 49.955 42.845C47.7931 47.406 46.003 50.7569 45.3913 51.3949C44.1285 52.7105 42.022 53.6279 40.2925 53.6148C38.6869 53.6016 35.7236 52.2306 34.9169 51.126C34.6031 50.6962 32.7181 46.971 30.725 42.845C28.7345 38.7217 26.5093 34.1185 25.7817 32.6184C25.054 31.1182 24.4582 29.8264 24.4582 29.7473C24.4582 29.2569 20.6881 22.0226 19.9447 21.0893C18.3549 19.0883 15.8002 18.4028 13.7755 19.4337L13.7807 19.4284ZM13.7307 22.4523C13.1955 23.0429 10.1135 28.9564 10.1135 29.394C10.1135 29.5338 8.86383 32.1754 5.75023 38.6215C2.32817 45.7029 2.15416 46.2776 2.77372 48.4447C3.29309 50.2612 4.73521 51.9116 6.62816 52.8502C8.35237 53.707 9.17493 53.7835 11.2287 53.2747C13.4459 52.7289 14.9197 51.2393 16.6017 47.8516C17.4164 46.2091 18.0834 44.8118 18.0834 44.7485C18.0834 44.6852 19.304 42.1464 20.7962 39.1118C23.3799 33.8522 23.488 33.5543 23.0556 32.7475C22.6075 31.9118 22.5758 31.9593 20.0264 37.1583C18.608 40.0478 16.8443 43.7045 16.1061 45.2811C13.8572 50.0793 13.5118 50.5908 12.0064 51.3527C10.1267 52.3018 8.33919 52.2675 6.74943 51.2499C4.73521 49.9607 4.21584 49.0617 4.23693 46.8998C4.25275 45.3364 4.49793 44.5323 5.71596 42.0567C7.20817 39.0196 9.17757 34.9279 10.7541 31.5902C11.2419 30.5593 12.4441 28.06 13.4275 26.0405C14.4108 24.0184 15.215 22.2256 15.215 22.0569C15.215 21.5085 14.3871 21.73 13.7307 22.4523ZM65.2725 22.0516C65.2725 22.2177 66.3482 24.5562 67.6638 27.248C68.9793 29.9398 70.055 32.1834 70.055 32.2334C70.055 32.2835 71.1491 34.5509 72.4831 37.269C75.2382 42.8766 76.4298 45.7846 76.4298 46.9025C76.4298 49.3464 74.1836 51.6823 71.5498 51.9723C69.8731 52.1568 67.8984 51.2868 67.002 49.966C66.335 48.9852 61.0806 38.3499 59.5146 34.8119C58.3177 32.1122 58.0224 31.7325 57.6085 32.3758C57.0417 33.2564 57.3027 34.0578 60.0524 39.85C64.2496 48.6899 65.233 50.575 66.1663 51.5399C69.3748 54.8644 75.1406 54.0814 77.3051 50.0266C78.5996 47.6037 78.3992 45.7055 76.4088 41.5558C69.1823 26.4729 67.5056 23.1273 66.8465 22.4523C66.1426 21.7326 65.2699 21.5111 65.2699 22.0516H65.2725ZM16.5411 25.5475C14.0444 30.7702 12.5627 33.8469 10.9967 37.0607C7.72754 43.7651 7.01571 45.3707 6.79952 46.5202C6.60179 47.5668 6.68616 47.8094 7.56408 48.6688C8.40774 49.4967 8.7162 49.61 9.68112 49.4571C10.3033 49.3569 11.0072 49.117 11.2472 48.9246C11.7533 48.5133 13.2113 45.6132 17.767 35.9692C18.2547 34.9384 19.2408 32.9189 19.9579 31.4821C21.1311 29.1357 21.2207 28.7929 20.8516 28.0995C20.3032 27.0713 20.1319 27.2981 17.9885 31.9118C17.0314 33.9708 15.534 37.1319 14.656 38.9352C13.7807 40.7385 12.4784 43.4487 11.7639 44.9541C10.4457 47.7303 9.81031 48.3498 8.87965 47.7777C7.83036 47.1318 7.76181 47.3295 12.1936 38.1522C16.2379 29.771 18.7293 24.4059 18.7293 24.0685C18.7293 23.8655 18.5184 23.528 18.2626 23.3171C17.8698 22.9981 17.5983 23.3487 16.549 25.5449L16.5411 25.5475ZM61.9296 23.6097C61.8136 23.9657 62.0587 24.9121 62.5122 25.8744C62.9419 26.784 63.754 28.5135 64.3182 29.7183C64.8823 30.9231 66.2612 33.781 67.3817 36.0721C68.5021 38.3631 69.417 40.2956 69.417 40.3668C69.417 40.438 70.0629 41.8379 70.8512 43.483C72.4225 46.7548 72.5069 47.116 71.8293 47.667C71.1834 48.1917 70.258 47.6406 69.6437 46.3673C69.3722 45.8031 68.075 43.0902 66.7647 40.3404C65.4545 37.5906 63.5773 33.6887 62.5939 31.6719C61.6106 29.655 60.8065 27.8623 60.8065 27.6883C60.8065 27.1821 59.9364 27.3244 59.7255 27.8675C59.3802 28.7507 59.5041 29.1225 61.5842 33.4119C62.7126 35.7399 64.0862 38.6531 64.6398 39.8843C66.7067 44.498 68.808 48.4817 69.4565 49.0116C70.3582 49.7498 72.0138 49.7023 73.042 48.9114C73.688 48.4131 73.8831 47.9886 73.8831 47.0633C73.8831 45.7556 73.5931 45.0253 70.8538 39.4045C69.8494 37.3428 68.025 33.5464 66.799 30.968C65.5731 28.3896 64.2153 25.5422 63.783 24.6406C62.9657 22.9427 62.2723 22.5552 61.9322 23.6097H61.9296Z" fill="#FFD5CA"/>
</svg>
