<svg width="14" height="12" viewBox="0 0 14 12" fill="none" xmlns="http://www.w3.org/2000/svg">
<path fill-rule="evenodd" clip-rule="evenodd" d="M2 1H12C12.5523 1 13 1.44772 13 2V10C13 10.5523 12.5523 11 12 11H2C1.44772 11 1 10.5523 1 10V2C1 1.44772 1.44772 1 2 1ZM0 2C0 0.895431 0.895431 0 2 0H12C13.1046 0 14 0.895431 14 2V10C14 11.1046 13.1046 12 12 12H2C0.89543 12 0 11.1046 0 10V2ZM2.31235 1.60957C2.09672 1.43706 1.78207 1.47202 1.60957 1.68765C1.43706 1.90328 1.47202 2.21793 1.68765 2.39043L5.43826 5.39092C6.35131 6.12136 7.64869 6.12136 8.56174 5.39092L12.3123 2.39043C12.528 2.21793 12.5629 1.90328 12.3904 1.68765C12.2179 1.47202 11.9033 1.43706 11.6877 1.60957L7.93704 4.61005C7.38921 5.04832 6.61078 5.04832 6.06296 4.61005L2.31235 1.60957Z" fill="#494C52"/>
</svg>
