<svg width="25" height="24" viewBox="0 0 25 24" fill="none" xmlns="http://www.w3.org/2000/svg">
<path d="M24.5009 12.0011C24.501 10.0046 24.0029 8.03971 23.052 6.28432C22.101 4.52892 20.7271 3.03852 19.0547 1.9481C17.3824 0.857687 15.4644 0.201721 13.4746 0.0396243C11.4847 -0.122472 9.48588 0.214423 7.65909 1.01979C5.83231 1.82516 4.23531 3.07355 3.01276 4.65189C1.79021 6.23022 0.98074 8.08862 0.657678 10.0588C0.334616 12.0289 0.508168 14.0485 1.16261 15.9346C1.81706 17.8207 2.93172 19.5138 4.40562 20.8604L4.54681 20.9781C6.73876 22.9248 9.56858 24 12.5002 24C15.4318 24 18.2617 22.9248 20.4536 20.9781L20.5948 20.8604C21.8266 19.7369 22.8103 18.3686 23.483 16.843C24.1556 15.3175 24.5023 13.6683 24.5009 12.0011ZM1.91136 12.0011C1.909 10.2724 2.32989 8.56944 3.13729 7.04091C3.94469 5.51239 5.11403 4.20477 6.5432 3.23227C7.97237 2.25977 9.61791 1.65196 11.3361 1.46192C13.0543 1.27187 14.7929 1.50538 16.4 2.14204C18.0072 2.7787 19.434 3.79916 20.556 5.11429C21.6779 6.42942 22.4608 7.99923 22.8362 9.68662C23.2117 11.374 23.1684 13.1277 22.71 14.7945C22.2516 16.4612 21.3921 17.9905 20.2065 19.2485C19.0946 17.5285 17.4373 16.2316 15.5004 15.566C16.4673 14.922 17.2013 13.9839 17.5939 12.8905C17.9865 11.7971 18.0168 10.6063 17.6804 9.49435C17.344 8.38236 16.6587 7.40815 15.7258 6.71575C14.7929 6.02334 13.662 5.64951 12.5002 5.64951C11.3384 5.64951 10.2075 6.02334 9.27464 6.71575C8.34176 7.40815 7.65644 8.38236 7.32002 9.49435C6.98359 10.6063 7.01392 11.7971 7.40651 12.8905C7.7991 13.9839 8.53312 14.922 9.50003 15.566C7.56308 16.2316 5.90578 17.5285 4.79388 19.2485C2.94077 17.2907 1.90908 14.6968 1.91136 12.0011ZM8.49998 11.0598C8.49998 10.2687 8.73458 9.49526 9.17414 8.83742C9.61369 8.17959 10.2384 7.66687 10.9694 7.3641C11.7003 7.06133 12.5046 6.98211 13.2806 7.13646C14.0566 7.29081 14.7694 7.6718 15.3288 8.23124C15.8882 8.79068 16.2692 9.50346 16.4236 10.2794C16.5779 11.0554 16.4987 11.8597 16.1959 12.5907C15.8932 13.3216 15.3804 13.9464 14.7226 14.3859C14.0648 14.8255 13.2914 15.0601 12.5002 15.0601C11.4402 15.057 10.4246 14.6345 9.67504 13.885C8.92553 13.1355 8.50308 12.1198 8.49998 11.0598V11.0598ZM5.841 20.2368C6.53305 19.0895 7.50978 18.1405 8.6765 17.4817C9.84322 16.823 11.1604 16.4768 12.5002 16.4768C13.8401 16.4768 15.1572 16.823 16.3239 17.4817C17.4906 18.1405 18.4674 19.0895 19.1594 20.2368C17.2739 21.7592 14.9236 22.5895 12.5002 22.5895C10.0768 22.5895 7.72655 21.7592 5.841 20.2368Z" fill="#525252"/>
</svg>
