<svg width="151" height="101" viewBox="0 0 151 101" fill="none" xmlns="http://www.w3.org/2000/svg">
<path d="M53.9742 58.0511C59.1309 48.9798 68.9675 42.0146 79.3804 42.6856C71.6995 51.0381 67.2207 61.8383 66.7362 73.1752C66.5653 77.5481 66.8304 82.4295 63.927 85.7039C62.1204 87.7413 59.3591 88.728 56.644 88.935C53.9289 89.1419 51.2144 88.6514 48.5355 88.1629L47.8857 88.3624C47.6383 77.9308 48.8174 67.1224 53.9742 58.0511Z" fill="#F0F0F0"/>
<path d="M79.3966 42.9037C71.6964 46.6106 65.1306 52.8015 61.1 60.3517C60.2287 61.9841 59.4868 63.7158 59.1631 65.5468C58.8394 67.3786 59.0655 69.1223 59.6912 70.8621C60.2632 72.4527 61.0324 74.0134 61.2078 75.7153C61.3927 77.5091 60.7326 79.1865 59.5445 80.5177C58.0908 82.1464 56.1386 83.1557 54.1952 84.0764C52.0374 85.0986 49.7799 86.1262 48.2515 88.034C48.0664 88.2652 47.7185 87.9643 47.9034 87.7335C50.5625 84.4142 55.1141 83.7903 58.2704 81.1164C59.7432 79.8687 60.8489 78.1697 60.7791 76.1788C60.7181 74.4379 59.9262 72.8278 59.3331 71.2224C58.7104 69.5366 58.3998 67.8416 58.6232 66.0443C58.8516 64.2058 59.5274 62.4414 60.3532 60.794C62.2157 57.0785 64.7645 53.6675 67.6844 50.7188C71.0401 47.3295 74.951 44.5391 79.2476 42.4685C79.5136 42.3405 79.6608 42.7765 79.3966 42.9037Z" fill="white"/>
<path d="M62.2799 57.8285C61.0994 56.9654 60.2642 55.7107 59.9234 54.2886C59.5826 52.8665 59.7584 51.3696 60.4195 50.0652C60.5541 49.8017 60.9699 49.9985 60.835 50.2624C60.2173 51.4759 60.0536 52.8703 60.3737 54.194C60.6937 55.5176 61.4764 56.6832 62.5804 57.4804C62.8201 57.6539 62.5182 58.0011 62.2799 57.8285Z" fill="white"/>
<path d="M59.2957 70.0939C62.2536 69.6617 64.94 68.1305 66.8192 65.8056C67.0051 65.5751 67.3531 65.8759 67.1673 66.1061C65.2073 68.5218 62.4085 70.1096 59.3294 70.5526C59.0358 70.5946 59.0038 70.1357 59.2957 70.0939Z" fill="white"/>
<path d="M71.2668 47.8955C71.654 48.3246 72.1417 48.6509 72.6861 48.845C73.2305 49.0391 73.8146 49.0949 74.3859 49.0075C74.6788 48.9618 74.7105 49.4207 74.4196 49.4661C73.7879 49.5598 73.1429 49.4974 72.541 49.2843C71.939 49.0711 71.3984 48.7139 70.9663 48.2436C70.9219 48.2027 70.8947 48.1464 70.8903 48.0862C70.8859 48.0259 70.9045 47.9663 70.9425 47.9193C70.9825 47.8734 71.0391 47.8452 71.0998 47.8407C71.1605 47.8362 71.2205 47.8559 71.2668 47.8955Z" fill="white"/>
<path d="M100.099 71.3019C99.9171 71.3356 99.7351 71.3694 99.5514 71.4067C97.1064 71.8731 94.7033 72.5374 92.3658 73.393C92.184 73.4562 92.0008 73.5231 91.8212 73.5915C86.2117 75.7128 81.0448 78.8572 76.5831 82.8647C74.8092 84.461 73.1593 86.19 71.6477 88.0366C69.5602 90.587 67.4998 93.5184 64.7721 95.1813C64.4894 95.358 64.1961 95.517 63.8938 95.6574L48.1798 89.1395C48.1516 89.1067 48.1216 89.0775 48.0932 89.0447L47.4539 88.8131C47.5252 88.7125 47.6013 88.6096 47.6726 88.5089C47.7137 88.4503 47.7583 88.3932 47.7995 88.3346C47.828 88.296 47.8567 88.2575 47.8802 88.221C47.8897 88.2081 47.8993 88.1953 47.9073 88.186C47.9308 88.1496 47.9565 88.1182 47.9786 88.0853C48.4025 87.509 48.8312 86.9347 49.2647 86.3623C49.2662 86.3587 49.2662 86.3587 49.2712 86.3566C52.5853 82.0039 56.2919 77.8896 60.5051 74.4687C60.6319 74.3658 60.76 74.2593 60.894 74.1594C62.8017 72.6279 64.8314 71.255 66.9628 70.0542C68.1319 69.4004 69.3335 68.8063 70.5627 68.274C73.7416 66.9049 77.1161 66.0443 80.5624 65.7237C87.4327 65.0858 94.4306 66.6521 99.6998 70.9682C99.8346 71.0787 99.966 71.1878 100.099 71.3019Z" fill="#F0F0F0"/>
<path d="M99.9809 71.4867C91.6009 69.8104 82.6312 70.8004 74.8672 74.4021C73.1887 75.1808 71.5537 76.1168 70.1929 77.3839C68.8315 78.6516 67.9623 80.18 67.4143 81.9459C66.9134 83.5602 66.588 85.2695 65.7034 86.734C64.7709 88.2776 63.2341 89.2194 61.4839 89.567C59.3426 89.9923 57.1762 89.6227 55.0702 89.1878C52.7318 88.7048 50.3107 88.1661 47.9418 88.7692C47.6547 88.8423 47.5581 88.3926 47.8447 88.3197C51.9663 87.2703 55.9762 89.5125 60.1061 89.2779C62.0333 89.1685 63.9391 88.4776 65.082 86.846C66.0814 85.4192 66.4185 83.6569 66.9116 82.0179C67.4293 80.297 68.2018 78.7567 69.4622 77.4561C70.7515 76.1257 72.3534 75.1238 74.0047 74.3056C77.7287 72.4604 81.8175 71.2715 85.9241 70.6751C90.6441 69.9893 95.4467 70.1159 100.124 71.0495C100.413 71.1075 100.268 71.5442 99.9809 71.4867Z" fill="white"/>
<path d="M77.3288 73.0984C76.9059 71.6985 76.9945 70.1939 77.5786 68.8532C78.1627 67.5126 79.2043 66.4232 80.5175 65.7797C80.7836 65.6504 80.997 66.0579 80.7305 66.1873C79.5066 66.7844 78.5364 67.7992 77.9951 69.0487C77.4537 70.2982 77.3768 71.7001 77.7783 73.0014C77.8652 73.2842 77.4152 73.3796 77.3288 73.0984Z" fill="white"/>
<path d="M67.5609 81.094C70.1829 82.5298 73.2497 82.9246 76.1498 82.1996C76.4371 82.1276 76.5338 82.5772 76.2469 82.6492C73.2275 83.3979 70.0368 82.9806 67.3116 81.4804C67.052 81.3373 67.3026 80.9516 67.5609 81.094Z" fill="white"/>
<path d="M90.4859 70.5776C90.5366 71.1533 90.7296 71.7074 91.0474 72.1902C91.3652 72.6729 91.798 73.0692 92.3068 73.3433C92.5681 73.4831 92.3172 73.8687 92.0575 73.7298C91.4968 73.4243 91.0194 72.9861 90.667 72.4535C90.3147 71.9209 90.0982 71.3102 90.0363 70.6746C90.0255 70.6152 90.0377 70.5539 90.0704 70.5031C90.1031 70.4523 90.154 70.416 90.2126 70.4013C90.2722 70.3888 90.3343 70.4003 90.3855 70.4333C90.4366 70.4663 90.4727 70.5181 90.4859 70.5776Z" fill="white"/>
<path d="M70.1654 82.0551C67.9647 71.4143 65.2138 67.8667 65.2138 67.8667L64.1629 67.0517L62.8991 66.07L62.9052 65.9438L62.6054 65.8419L62.535 65.7873L62.4196 65.6987L62.4011 65.7186L62.3619 65.7592L56.6431 63.8153L49.3877 61.3508L46.0281 56.9839C45.4809 56.2727 44.7765 55.6979 43.9699 55.3045C43.1634 54.9111 42.2768 54.7098 41.3795 54.7165L30.6498 54.7959C29.199 54.8066 27.8047 55.3597 26.741 56.3463L19.6885 62.888L8.69944 68.1363L8.68089 68.1178L8.56549 68.2002L6.86758 69.012L6.93764 69.3768L5.88674 70.1351C5.88674 70.1351 3.13586 73.4361 0.935153 83.3372C0.375318 85.8565 0.099746 91.2608 0.000279522 97.9202C-0.00471667 98.2571 0.0573088 98.5916 0.182748 98.9043C0.308187 99.217 0.494538 99.5016 0.730965 99.7417C0.967392 99.9817 1.24918 100.172 1.55994 100.302C1.8707 100.433 2.20424 100.5 2.54115 100.5H61.2361L68.562 100.5C68.8987 100.5 69.232 100.433 69.5425 100.303C69.8531 100.173 70.1348 99.9822 70.3711 99.7425C70.6075 99.5027 70.7939 99.2184 70.9195 98.9061C71.0452 98.5937 71.1075 98.2595 71.1029 97.9228C71.0058 90.6763 70.7303 84.7872 70.1654 82.0551Z" fill="#3F3D56"/>
<path d="M77.6969 9.77948C75.4133 9.77948 73.2233 10.6866 71.6086 12.3014C69.9938 13.9161 69.0867 16.1061 69.0867 18.3897C69.0867 20.6733 69.9938 22.8633 71.6086 24.4781C73.2233 26.0928 75.4133 27 77.6969 27H141.864C144.147 27 146.337 26.0928 147.952 24.4781C149.567 22.8633 150.474 20.6733 150.474 18.3897C150.474 16.1061 149.567 13.9161 147.952 12.3014C146.337 10.6866 144.147 9.77948 141.864 9.77948H77.6969Z" fill="#E5E5E5"/>
<path d="M77.6958 11.522C75.8744 11.522 74.1276 12.2455 72.8396 13.5335C71.5517 14.8214 70.8281 16.5682 70.8281 18.3897C70.8281 20.2111 71.5517 21.9579 72.8396 23.2459C74.1276 24.5338 75.8744 25.2574 77.6958 25.2574H141.863C143.684 25.2574 145.431 24.5338 146.719 23.2459C148.007 21.9579 148.73 20.2111 148.73 18.3897C148.73 16.5682 148.007 14.8214 146.719 13.5335C145.431 12.2455 143.684 11.522 141.863 11.522H77.6958Z" fill="white"/>
<path d="M37.6995 50.6857C45.463 50.6857 51.7565 44.3922 51.7565 36.6287C51.7565 28.8653 45.463 22.5718 37.6995 22.5718C29.9361 22.5718 23.6426 28.8653 23.6426 36.6287C23.6426 44.3922 29.9361 50.6857 37.6995 50.6857Z" fill="#9E616A"/>
<path d="M34.1025 49.9975C34.0425 49.8653 33.9826 49.7326 33.9229 49.5995C33.9459 49.6002 33.9687 49.6035 33.9917 49.6041L34.1025 49.9975Z" fill="#2F2E41"/>
<path d="M23.2512 23.2111C23.9621 22.6439 24.7931 22.1221 25.7021 22.1514C26.611 22.1807 27.5328 23.0017 27.3445 23.8914C29.0141 20.9352 31.6716 18.6616 34.8506 17.4696C38.0296 16.2775 41.5268 16.2433 44.7285 17.3729C46.9877 18.17 49.2032 19.7646 49.7222 22.1034C49.8554 22.7037 49.884 23.362 50.2589 23.8496C50.7315 24.4642 51.6358 24.6033 52.3804 24.387C52.3879 24.3849 52.3953 24.3827 52.4027 24.3805C52.5285 24.3375 52.6643 24.3333 52.7925 24.3684C52.9207 24.4034 53.0355 24.4761 53.1219 24.5771C53.2084 24.6781 53.2625 24.8027 53.2774 24.9348C53.2922 25.0669 53.2671 25.2004 53.2053 25.318L52.566 26.5102C53.3718 26.6898 54.2091 26.672 55.0065 26.4583C55.139 26.4236 55.279 26.4307 55.4072 26.4786C55.5355 26.5266 55.6458 26.613 55.723 26.7262C55.8002 26.8393 55.8405 26.9735 55.8384 27.1105C55.8363 27.2474 55.7919 27.3803 55.7112 27.491C53.6034 30.3849 50.0819 32.2536 46.4884 32.2317C43.9343 32.2161 41.3539 31.3358 38.8682 31.9232C37.9066 32.1504 37.008 32.59 36.2385 33.2098C35.4689 33.8296 34.8479 34.6138 34.421 35.5049C33.994 36.396 33.772 37.3714 33.7712 38.3595C33.7703 39.3476 33.9908 40.3233 34.4162 41.2151C33.6526 40.3799 32.1765 40.5776 31.3953 41.3966C30.6142 42.2155 30.412 43.4378 30.4907 44.5668C30.6111 46.2935 31.2876 47.9206 32.0008 49.5041C26.0212 49.3159 20.3654 45.1212 18.4616 39.4479C16.5499 33.7508 18.5535 26.9586 23.2512 23.2111Z" fill="#2F2E41"/>
<path opacity="0.2" d="M13.8369 78.8428L17.7796 100.294L20.1453 100.5L13.8369 78.8428Z" fill="#1A1C1E"/>
<path opacity="0.2" d="M57.2651 77.2249L53.3225 100.278L50.9568 100.5L57.2651 77.2249Z" fill="#1A1C1E"/>
<path d="M26.6137 15.9916C25.8578 16.3073 25.069 15.9613 24.7382 15.1691C24.4023 14.3647 24.716 13.5482 25.4841 13.2275C26.2522 12.9068 27.027 13.2535 27.3682 14.0709C27.7044 14.8759 27.3941 15.6657 26.6137 15.9916ZM25.1656 11.6443L24.5646 11.8953C24.4144 11.9572 24.2465 11.9606 24.094 11.9046C23.9415 11.8487 23.8155 11.7376 23.741 11.5932L23.7113 11.5351C23.0646 10.3687 22.9905 8.95115 23.4924 7.32399C23.9573 5.86435 24.1504 4.83779 23.7621 3.90778C23.3131 2.83252 22.3543 2.49569 21.1317 2.98362C20.6575 3.18163 20.5066 3.17848 20.1334 3.54867C20.0522 3.63017 19.9555 3.69449 19.8489 3.7378C19.7423 3.78111 19.6281 3.80251 19.5131 3.80073C19.4019 3.79942 19.2921 3.77573 19.1903 3.73108C19.0885 3.68643 18.9967 3.62172 18.9204 3.54083C18.7734 3.38493 18.691 3.17906 18.69 2.9648C18.6889 2.75054 18.7691 2.54386 18.9145 2.38648C19.5418 1.72989 20.2983 1.21043 21.1364 0.860907C23.7633 -0.236009 25.0857 1.38343 25.6909 2.83268C26.2828 4.2502 25.9498 5.56543 25.4148 7.26878C24.9665 8.68417 24.9926 9.73294 25.5019 10.7758C25.5387 10.8546 25.5591 10.94 25.562 11.027C25.565 11.1139 25.5503 11.2006 25.5189 11.2817C25.4875 11.3628 25.44 11.4367 25.3793 11.4991C25.3186 11.5614 25.2459 11.6108 25.1656 11.6443Z" fill="#623CCE"/>
<path d="M91.8696 22.4962H79.1028C79.0623 22.4965 79.022 22.4888 78.9845 22.4734C78.9469 22.4581 78.9128 22.4355 78.884 22.4069C78.8552 22.3783 78.8324 22.3444 78.8168 22.3069C78.8012 22.2695 78.7932 22.2293 78.7932 22.1887C78.7932 22.1482 78.8012 22.108 78.8168 22.0706C78.8324 22.0331 78.8552 21.9991 78.884 21.9706C78.9128 21.942 78.9469 21.9194 78.9845 21.904C79.022 21.8887 79.0623 21.881 79.1028 21.8812H91.8696C91.9508 21.8818 92.0285 21.9144 92.0857 21.972C92.1429 22.0296 92.1751 22.1075 92.1751 22.1887C92.1751 22.2699 92.1429 22.3478 92.0857 22.4054C92.0285 22.4631 91.9508 22.4957 91.8696 22.4962Z" fill="#623CCE"/>
<path d="M108.065 22.599H95.2986C95.2581 22.5992 95.2178 22.5915 95.1803 22.5762C95.1427 22.5608 95.1086 22.5382 95.0798 22.5096C95.0511 22.4811 95.0282 22.4471 95.0126 22.4096C94.997 22.3722 94.989 22.332 94.989 22.2915C94.989 22.2509 94.997 22.2107 95.0126 22.1733C95.0282 22.1359 95.0511 22.1019 95.0798 22.0733C95.1086 22.0447 95.1427 22.0221 95.1803 22.0068C95.2178 21.9914 95.2581 21.9837 95.2986 21.984H108.065C108.106 21.9837 108.146 21.9914 108.184 22.0068C108.221 22.0221 108.255 22.0447 108.284 22.0733C108.313 22.1019 108.336 22.1359 108.351 22.1733C108.367 22.2107 108.375 22.2509 108.375 22.2915C108.375 22.332 108.367 22.3722 108.351 22.4096C108.336 22.4471 108.313 22.4811 108.284 22.5096C108.255 22.5382 108.221 22.5608 108.184 22.5762C108.146 22.5915 108.106 22.5992 108.065 22.599Z" fill="#623CCE"/>
<path d="M124.261 22.7013H111.494C111.413 22.7007 111.336 22.6681 111.278 22.6105C111.221 22.5529 111.189 22.475 111.189 22.3938C111.189 22.3126 111.221 22.2347 111.278 22.1771C111.336 22.1194 111.413 22.0868 111.494 22.0862H124.261C124.302 22.086 124.342 22.0937 124.38 22.1091C124.417 22.1244 124.451 22.147 124.48 22.1756C124.509 22.2042 124.532 22.2381 124.547 22.2756C124.563 22.313 124.571 22.3532 124.571 22.3938C124.571 22.4343 124.563 22.4745 124.547 22.5119C124.532 22.5494 124.509 22.5834 124.48 22.6119C124.451 22.6405 124.417 22.6631 124.38 22.6785C124.342 22.6938 124.302 22.7015 124.261 22.7013Z" fill="#623CCE"/>
<path d="M140.457 22.804H127.69C127.609 22.8035 127.531 22.7708 127.474 22.7132C127.417 22.6556 127.385 22.5777 127.385 22.4965C127.385 22.4153 127.417 22.3374 127.474 22.2798C127.531 22.2222 127.609 22.1896 127.69 22.189H140.457C140.538 22.1896 140.616 22.2222 140.673 22.2798C140.73 22.3374 140.762 22.4153 140.762 22.4965C140.762 22.5777 140.73 22.6556 140.673 22.7132C140.616 22.7708 140.538 22.8035 140.457 22.804Z" fill="#623CCE"/>
<path d="M85.457 19.6662C86.7675 19.6662 87.8298 18.6039 87.8298 17.2934C87.8298 15.9829 86.7675 14.9206 85.457 14.9206C84.1466 14.9206 83.0842 15.9829 83.0842 17.2934C83.0842 18.6039 84.1466 19.6662 85.457 19.6662Z" fill="#623CCE"/>
<path d="M101.752 19.6662C103.063 19.6662 104.125 18.6039 104.125 17.2934C104.125 15.9829 103.063 14.9206 101.752 14.9206C100.442 14.9206 99.3794 15.9829 99.3794 17.2934C99.3794 18.6039 100.442 19.6662 101.752 19.6662Z" fill="#623CCE"/>
<path d="M118.046 19.6662C119.356 19.6662 120.418 18.6039 120.418 17.2934C120.418 15.9829 119.356 14.9206 118.046 14.9206C116.735 14.9206 115.673 15.9829 115.673 17.2934C115.673 18.6039 116.735 19.6662 118.046 19.6662Z" fill="#623CCE"/>
<path d="M134.339 19.6662C135.649 19.6662 136.711 18.6039 136.711 17.2934C136.711 15.9829 135.649 14.9206 134.339 14.9206C133.028 14.9206 131.966 15.9829 131.966 17.2934C131.966 18.6039 133.028 19.6662 134.339 19.6662Z" fill="#623CCE"/>
</svg>
