<svg width="16" height="16" viewBox="0 0 16 16" fill="none" xmlns="http://www.w3.org/2000/svg">
<path d="M15.9476 6.09959C15.8875 5.90888 15.7718 5.74049 15.6152 5.61609C15.4587 5.49169 15.2685 5.41697 15.0692 5.40153L10.7456 5.02778C10.7194 5.02521 10.6945 5.0156 10.6733 4.99998C10.6522 4.98436 10.6357 4.96331 10.6256 4.93907L8.93643 0.913586C8.8582 0.729948 8.72771 0.573361 8.56119 0.463298C8.39467 0.353236 8.19947 0.294556 7.99986 0.294556C7.80025 0.294556 7.60505 0.353236 7.43853 0.463298C7.27201 0.573361 7.14153 0.729948 7.0633 0.913586L5.37414 4.93907C5.36402 4.96331 5.34752 4.98436 5.32639 4.99998C5.30527 5.0156 5.2803 5.02521 5.25416 5.02778L0.930546 5.40153C0.731195 5.41697 0.541021 5.49169 0.384484 5.61609C0.227948 5.74049 0.112209 5.90888 0.0521536 6.09959C-0.0114502 6.29058 -0.017006 6.49613 0.0361885 6.69027C0.089383 6.88441 0.19894 7.05842 0.351011 7.19031L3.63117 10.0516C3.65125 10.0695 3.66617 10.0924 3.67436 10.118C3.68254 10.1436 3.6837 10.1709 3.6777 10.1971L2.69169 14.4516C2.64573 14.6475 2.65884 14.8526 2.72938 15.041C2.79991 15.2295 2.9247 15.3928 3.08799 15.5103C3.24874 15.6289 3.44136 15.6966 3.64097 15.7047C3.84059 15.7127 4.03803 15.6607 4.20779 15.5554L7.92424 13.3012C7.94608 13.2877 7.97126 13.2806 7.99695 13.2806C8.02264 13.2806 8.04782 13.2877 8.06967 13.3012L11.7861 15.5554C11.9576 15.6604 12.1564 15.7123 12.3574 15.7044C12.5584 15.6966 12.7525 15.6294 12.9153 15.5113C13.0782 15.3932 13.2023 15.2295 13.2722 15.0409C13.3421 14.8523 13.3546 14.6473 13.308 14.4516L12.3249 10.1956C12.3189 10.1694 12.3201 10.1421 12.3283 10.1165C12.3365 10.0909 12.3514 10.068 12.3715 10.0502L15.6516 7.18886C15.8029 7.05674 15.9117 6.88282 15.9644 6.689C16.017 6.49517 16.0112 6.2901 15.9476 6.09959ZM15.075 6.53006L11.7948 9.39138C11.6551 9.51299 11.5511 9.67044 11.4942 9.84675C11.4374 10.0231 11.4297 10.2116 11.472 10.3919L12.4551 14.6479C12.4624 14.6765 12.4607 14.7066 12.4505 14.7343C12.4402 14.762 12.4218 14.7859 12.3976 14.8028C12.3758 14.8203 12.3489 14.8304 12.3209 14.8316C12.2929 14.8327 12.2653 14.825 12.242 14.8093L8.52559 12.5552C8.36714 12.4589 8.18528 12.408 7.99986 12.408C7.81444 12.408 7.63258 12.4589 7.47413 12.5552L3.75769 14.8093C3.73443 14.825 3.7068 14.8327 3.67881 14.8316C3.65083 14.8304 3.62395 14.8203 3.60208 14.8028C3.57792 14.7859 3.55949 14.762 3.54923 14.7343C3.53897 14.7066 3.53737 14.6765 3.54464 14.6479L4.52774 10.3919C4.57006 10.2116 4.56236 10.0231 4.50547 9.84675C4.44858 9.67044 4.34465 9.51299 4.20488 9.39138L0.924729 6.53006C0.902296 6.51098 0.886183 6.48554 0.878522 6.45711C0.870862 6.42867 0.872014 6.39858 0.881827 6.37082C0.889171 6.34317 0.905093 6.31856 0.927304 6.30053C0.949516 6.2825 0.976873 6.27197 1.00544 6.27047L5.32978 5.89672C5.51491 5.88094 5.69219 5.81481 5.84241 5.70547C5.99264 5.59614 6.11007 5.44778 6.182 5.27646L7.87116 1.25098C7.8829 1.226 7.90151 1.20487 7.92482 1.19007C7.94813 1.17528 7.97516 1.16742 8.00277 1.16742C8.03038 1.16742 8.05741 1.17528 8.08072 1.19007C8.10403 1.20487 8.12264 1.226 8.13438 1.25098L9.81773 5.27646C9.88942 5.44737 10.0064 5.59545 10.1561 5.70476C10.3057 5.81406 10.4824 5.88044 10.667 5.89672L14.9914 6.27047C15.0199 6.27197 15.0473 6.2825 15.0695 6.30053C15.0917 6.31856 15.1076 6.34317 15.115 6.37082C15.1251 6.3983 15.1267 6.42821 15.1196 6.45662C15.1125 6.48504 15.0969 6.51064 15.075 6.53006Z" fill="#525252"/>
</svg>
