<svg width="13" height="14" viewBox="0 0 13 14" fill="none" xmlns="http://www.w3.org/2000/svg">
<path fill-rule="evenodd" clip-rule="evenodd" d="M2 1H11C11.5523 1 12 1.44772 12 2V12C12 12.5523 11.5523 13 11 13H2C1.44772 13 1 12.5523 1 12V2C1 1.44772 1.44772 1 2 1ZM0 2C0 0.89543 0.895431 0 2 0H11C12.1046 0 13 0.895431 13 2V12C13 13.1046 12.1046 14 11 14H2C0.89543 14 0 13.1046 0 12V2ZM2.5 3C2.22386 3 2 3.22386 2 3.5C2 3.77614 2.22386 4 2.5 4H6.5C6.77614 4 7 3.77614 7 3.5C7 3.22386 6.77614 3 6.5 3H2.5ZM2 6.5C2 6.22386 2.22386 6 2.5 6H10.5C10.7761 6 11 6.22386 11 6.5C11 6.77614 10.7761 7 10.5 7H2.5C2.22386 7 2 6.77614 2 6.5ZM2.5 9C2.22386 9 2 9.22386 2 9.5C2 9.77614 2.22386 10 2.5 10H10.5C10.7761 10 11 9.77614 11 9.5C11 9.22386 10.7761 9 10.5 9H2.5Z" fill="#525252"/>
</svg>
