<svg width="16" height="18" viewBox="0 0 16 18" fill="none" xmlns="http://www.w3.org/2000/svg">
<path d="M14.2222 6.66673L12.6706 15.4914C12.6073 15.8518 12.4189 16.1783 12.1387 16.4136C11.8585 16.6489 11.5042 16.7779 11.1383 16.7778H4.86167C4.49575 16.7779 4.14154 16.6489 3.86131 16.4136C3.58107 16.1783 3.39275 15.8518 3.32944 15.4914L1.77778 6.66673M15 4.3334H10.625M10.625 4.3334V2.77785C10.625 2.36529 10.4611 1.96962 10.1694 1.6779C9.87766 1.38618 9.482 1.22229 9.06944 1.22229H6.93056C6.518 1.22229 6.12234 1.38618 5.83061 1.6779C5.53889 1.96962 5.375 2.36529 5.375 2.77785V4.3334M10.625 4.3334H5.375M1 4.3334H5.375" stroke="#55565A" stroke-linecap="round" stroke-linejoin="round"/>
</svg>
